<?xml version="1.0" encoding="UTF-8"?>
<svg width="1270px" height="479px" viewBox="0 0 1270 479" version="1.1" xmlns="http://www.w3.org/2000/svg" xmlns:xlink="http://www.w3.org/1999/xlink">
  <title>logo_ai4eu_beta</title>
  <g id="Page-1" stroke="none" stroke-width="1" fill="none" fill-rule="evenodd">
    <g id="logo_ai4eu_beta" fill-rule="nonzero">
      <g id="Group" opacity="0.8">
        <g transform="translate(28.000000, 177.000000)" fill="#624499" id="Path">
          <g>
            <path d="M228.3,0.2 L39.3,0.2 C18,0.2 0.7,17.5 0.7,38.8 C0.7,60.1 18,77.4 39.3,77.4 L228.3,77.4 C249.6,77.4 266.9,60.1 266.9,38.8 C266.9,17.5 240.4,0.2 219.1,0.2"></path>
          </g>
        </g>
        <g transform="translate(446.000000, 177.000000)" fill="#3581C3" id="Path">
          <g>
            <path d="M227.6,0.2 L39.5,0.2 C18.2,0.2 0.9,17.5 0.9,38.8 C0.9,60.1 18.2,77.4 39.5,77.4 L227.6,77.4 C248.9,77.4 266.2,60.1 266.2,38.8 C266.2,17.5 248.9,0.2 227.6,0.2"></path>
          </g>
        </g>
        <g transform="translate(736.000000, 7.000000)" fill="#334598" id="Path">
          <g>
            <path d="M221.3,0.1 L38.8,0.1 C17.5,0.1 0.2,17.4 0.2,38.7 C0.2,60 17.5,77.3 38.8,77.3 L221.3,77.3 C242.6,77.3 259.9,60 259.9,38.7 C259.9,17.4 242.6,0.1 221.3,0.1"></path>
          </g>
        </g>
        <g transform="translate(736.000000, 232.000000)" fill="#3581C3" id="Path">
          <g>
            <path d="M221.3,0.1 L38.8,0.1 C17.5,0.1 0.2,17.4 0.2,38.7 C0.2,60 17.5,77.3 38.8,77.3 L221.3,77.3 C242.6,77.3 259.9,60 259.9,38.7 C259.9,17.3 242.6,0.1 221.3,0.1"></path>
          </g>
        </g>
        <g transform="translate(736.000000, 116.000000)" fill="#E22028" id="Path">
          <g>
            <path d="M200,0.8 L38.8,0.8 C17.5,0.8 0.2,18.1 0.2,39.4 C0.2,60.7 17.5,78 38.8,78 L200,78 C221.3,78 238.6,60.7 238.6,39.4 C238.6,18.1 221.3,0.8 200,0.8"></path>
          </g>
        </g>
        <g transform="translate(345.000000, 6.000000)" fill="#EB7324" id="Path">
          <g>
            <path d="M77.7,264.7 L77.7,38.7 C77.7,17.4 60.4,0.1 39.1,0.1 C17.8,0.1 0.5,17.4 0.5,38.7 L0.5,264.7 C0.5,286 17.8,303.3 39.1,303.3 C60.4,303.3 77.7,286 77.7,264.7"></path>
          </g>
        </g>
        <g transform="translate(736.000000, 7.000000)" fill="#EB7324" id="Path">
          <g>
            <path d="M77.5,263.7 L77.5,38.7 C77.5,17.4 60.2,0.1 38.9,0.1 C17.6,0.1 0.3,17.4 0.3,38.7 L0.3,263.6 C0.3,284.9 17.6,302.200431 38.9,302.200431 C60.2,302.3 77.5,285 77.5,263.7"></path>
          </g>
        </g>
        <g transform="translate(576.000000, 113.000000)" fill="#E22028" id="Path">
          <g>
            <path d="M78,157.7 L78,39 C78,17.7 60.7,0.4 39.4,0.4 C18.1,0.4 0.8,17.7 0.8,39 L0.8,157.6 C0.8,178.9 18.1,196.200431 39.4,196.200431 C60.7,196.3 78,179 78,157.7"></path>
          </g>
        </g>
        <g transform="translate(1019.000000, 0.000000)" fill="#E22028" id="Path">
          <g>
            <path d="M77.9,183 L77.9,38.6 C77.9,17.3 60.6,0 39.3,0 C18,0 0.7,17.3 0.7,38.6 L0.7,183 C0.7,204.3 18,221.6 39.3,221.6 C60.6,221.6 77.9,204.3 77.9,183"></path>
          </g>
        </g>
        <g transform="translate(1191.000000, 0.000000)" fill="#5756A4" id="Path">
          <g>
            <path d="M77.5,183.8 L77.5,39.4 C77.5,18.1 60.2,0.8 38.9,0.8 C17.6,0.8 0.3,18.1 0.3,39.4 L0.3,183.8 C0.3,205.1 17.6,222.4 38.9,222.4 C60.2,222.4 77.5,205.1 77.5,183.8"></path>
          </g>
        </g>
        <g transform="translate(0.000000, 3.000000)" fill="#3581C3" id="Path">
          <g>
            <path d="M127.1,21 L4.7,246.5 C-5.5,265.2 1.5,288.7 20.2,298.8 C38.9,309 62.4,302 72.5,283.3 L195,57.9 C205.2,39.2 198.2,15.7 179.5,5.6 C160.7,-4.7 137.3,2.3 127.1,21"></path>
          </g>
        </g>
        <g transform="translate(446.000000, 3.000000)" fill="#334598" id="Path">
          <g>
            <path d="M99.8,21 L5.6,194.5 C-4.6,213.2 2.4,236.7 21.1,246.8 C39.8,257 63.3,250 73.4,231.3 L167.6,57.8 C177.8,39.1 170.8,15.6 152.1,5.5 C133.4,-4.7 109.9,2.3 99.8,21"></path>
          </g>
        </g>
        <g transform="translate(122.000000, 3.000000)" fill="#E22028" id="Path">
          <g>
            <path d="M4.7,57.9 L127.1,283.4 C137.3,302.1 160.7,309.1 179.4,298.9 C198.1,288.7 205.1,265.3 194.9,246.6 L72.6,21 C62.4,2.3 39,-4.7 20.3,5.5 C1.5,15.7 -5.4,39.1 4.7,57.9"></path>
          </g>
        </g>
        <g transform="translate(1019.000000, 144.000000)" fill="#EB7324" id="Path">
          <g>
            <path d="M0.6,39.6 C0.6,56.6 4.1,73.1 10.4,88 C19.9,110.3 35.6,129.2 55.4,142.6 C75.2,156 99.3,163.9 124.9,163.800938 C141.9,163.800938 158.4,160.3 173.3,154 C195.6,144.5 214.5,128.8 227.9,109 C241.3,89.2 249.2,65.1 249.100938,39.5 C249.100938,18.2 231.8,0.9 210.5,0.9 C189.2,0.9 171.9,18.2 171.9,39.5 C171.9,46.1 170.6,52.2 168.2,57.8 C164.7,66.2 158.6,73.4 151.1,78.5 C143.6,83.6 134.7,86.5 124.9,86.5 C118.3,86.5 112.2,85.2 106.6,82.8 C98.2,79.3 91,73.3 85.9,65.7 C80.8,58.2 77.9,49.3 77.9,39.4 C77.9,18.1 60.6,0.8 39.3,0.8 C17.9,1 0.6,18.3 0.6,39.6"></path>
          </g>
        </g>
      </g>
      <g id="Group" opacity="0.8" transform="translate(616.000000, 267.000000)" fill="#F497AF">
        <g id="Path">
          <path d="M547.3,0.3 L106.1,0.3 C47.8,0.3 0.5,47.6 0.5,106 C0.5,164.4 47.8,211.7 106.1,211.7 L547.4,211.7 C605.8,211.7 653.1,164.4 653.1,106 C653.1,47.6 605.7,0.3 547.3,0.3"></path>
        </g>
      </g>
      <g id="Group" transform="translate(747.000000, 331.000000)">
        <g fill="#FFFFFF">
          <path d="M0.5,9.1 C0.5,5.1 3.6,2 7.6,2 L36.6,2 C45.8,2 53.1,4.5 57.7,9.1 C61.3,12.7 63.1,17 63.1,22.4 L63.1,22.6 C63.1,32.3 57.6,37.4 51.6,40.5 C61,43.7 67.6,49.1 67.6,60.1 L67.6,60.3 C67.6,74.7 55.8,82.4 37.8,82.4 L7.7,82.4 C3.7,82.4 0.6,79.3 0.6,75.3 L0.6,9.1 L0.5,9.1 Z M33.7,36 C42.8,36 48.9,32.4 48.9,25.1 L48.9,24.9 C48.9,18.6 43.8,14.7 34.7,14.7 L14.3,14.7 L14.3,36 L33.7,36 Z M37.9,70 C47.6,70 53.4,66.2 53.4,59 L53.4,58.8 C53.4,52 48,48 36.8,48 L14.4,48 L14.4,70 L37.9,70 Z" id="Shape"></path>
          <path d="M83.5,75.4 L83.5,9.1 C83.5,5.1 86.6,2 90.6,2 L137.4,2 C140.9,2 143.7,4.9 143.7,8.3 C143.7,11.9 140.8,14.6 137.4,14.6 L97.6,14.6 L97.6,35.5 L132.2,35.5 C135.7,35.5 138.5,38.4 138.5,41.9 C138.5,45.4 135.6,48.1 132.2,48.1 L97.6,48.1 L97.6,69.7 L138,69.7 C141.5,69.7 144.3,72.6 144.3,76 C144.3,79.6 141.4,82.3 138,82.3 L90.6,82.3 C86.6,82.5 83.5,79.4 83.5,75.4 Z" id="Path"></path>
          <path d="M180.4,15.1 L160.8,15.1 C157.1,15.1 154.2,12.1 154.2,8.5 C154.2,4.9 157.1,1.9 160.8,1.9 L214.3,1.9 C217.9,1.9 220.7,4.9 220.7,8.5 C220.7,12.1 217.8,15.1 214.3,15.1 L194.6,15.1 L194.6,76.1 C194.6,80 191.4,83.1 187.5,83.1 C183.6,83.1 180.4,80 180.4,76.1 L180.4,15.1 L180.4,15.1 Z" id="Path"></path>
          <path d="M221.4,73.3 L251.3,6.6 C252.9,3 255.8,0.8 259.8,0.8 L260.5,0.8 C264.5,0.8 267.3,3 268.9,6.6 L298.8,73.3 C299.4,74.3 299.6,75.4 299.6,76.3 C299.6,80.1 296.7,83.1 292.9,83.1 C289.6,83.1 287.3,81.1 286,78.2 L279.4,63.1 L240.3,63.1 L233.5,78.6 C232.4,81.5 229.9,83.1 226.9,83.1 C223.2,83.1 220.3,80.2 220.3,76.5 C220.5,75.5 220.8,74.5 221.4,73.3 Z M274.1,50.6 L259.9,18 L245.8,50.6 L274.1,50.6 Z" id="Shape"></path>
        </g>
        <path d="M334.4,65.8 L357.4,47 C367.4,38.8 371.4,34.3 371.4,27.6 C371.4,20.8 366.9,17.1 360.6,17.1 C355.5,17.1 351.9,19.3 347.4,24.1 C346.2,25.4 344.2,26.6 341.4,26.6 C336.9,26.6 333.3,23 333.3,18.5 C333.3,16.5 334.1,14.5 335.4,13 C341.9,5.5 349.5,1.1 361.7,1.1 C378.4,1.1 389.5,10.9 389.5,26 L389.5,26.2 C389.5,39.7 382.6,46.4 368.3,57.5 L355.1,67.7 L383.3,67.7 C387.6,67.7 391,71.2 391,75.4 C391,79.7 387.5,83 383.3,83 L339.5,83 C334,83 329.9,79.9 329.9,74.6 C329.8,71.2 331.4,68.2 334.4,65.8 Z" id="Path" fill="#3581C3"></path>
      </g>
    </g>
  </g>
</svg>
